<?xml version="1.0" encoding="UTF-8" standalone="no"?>
<svg
   width="512"
   height="512"
   viewBox="0 0 512 512"
   fill="none"
   version="1.1"
   id="svg3"
   sodipodi:docname="logo.svg"
   inkscape:version="1.4.2 (ebf0e940d0, 2025-05-08)"
   xmlns:inkscape="http://www.inkscape.org/namespaces/inkscape"
   xmlns:sodipodi="http://sodipodi.sourceforge.net/DTD/sodipodi-0.dtd"
   xmlns="http://www.w3.org/2000/svg"
   xmlns:svg="http://www.w3.org/2000/svg">
  <sodipodi:namedview
     id="namedview3"
     pagecolor="#505050"
     bordercolor="#ffffff"
     borderopacity="1"
     inkscape:showpageshadow="0"
     inkscape:pageopacity="0"
     inkscape:pagecheckerboard="1"
     inkscape:deskcolor="#505050"
     inkscape:zoom="1.3769247"
     inkscape:cx="258.9103"
     inkscape:cy="116.20098"
     inkscape:window-width="1705"
     inkscape:window-height="1384"
     inkscape:window-x="0"
     inkscape:window-y="0"
     inkscape:window-maximized="1"
     inkscape:current-layer="svg3" />
  <g
     clip-path="url(#clip0_0_1)"
     id="g2">
    <rect
       width="512"
       height="512"
       rx="48"
       fill="#5F50E6"
       id="rect2" />
    <path
       d="M154.938 470V245.938H207.906V429.062H290.875V470H154.938ZM476.344 407.031C476.344 420.677 472.646 432.5 465.25 442.5C457.854 452.396 447.021 460.104 432.75 465.625C418.479 471.146 400.719 473.906 379.469 473.906C367.281 473.906 355.146 472.604 343.062 470C330.979 467.396 321.448 464.427 314.469 461.094V409.844C323.74 417.135 334.469 423.021 346.656 427.5C358.948 431.979 370.354 434.219 380.875 434.219C393.896 434.219 403.74 432.083 410.406 427.812C417.073 423.542 420.406 417.5 420.406 409.688C420.406 405 419.26 400.99 416.969 397.656C414.781 394.219 411.344 391.094 406.656 388.281C402.073 385.365 391.708 380.729 375.562 374.375C355.354 366.562 339.938 357.083 329.312 345.938C318.688 334.792 313.375 322.396 313.375 308.75C313.375 288.854 321.604 272.812 338.062 260.625C354.625 248.333 376.76 242.188 404.469 242.188C427.385 242.188 447.75 245.156 465.562 251.094V298.594C457.542 293.594 448.323 289.583 437.906 286.562C427.49 283.438 417.385 281.875 407.594 281.875C395.198 281.875 385.615 283.802 378.844 287.656C372.073 291.406 368.688 297.031 368.688 304.531C368.688 311.51 371.344 317.552 376.656 322.656C382.073 327.76 391.865 333.125 406.031 338.75C431.344 348.75 449.365 359.167 460.094 370C470.927 380.833 476.344 393.177 476.344 407.031Z"
       fill="white"
       id="path2" />
  </g>
  <defs
     id="defs3">
    <clipPath
       id="clip0_0_1">
      <rect
         width="512"
         height="512"
         fill="white"
         id="rect3" />
    </clipPath>
  </defs>
</svg>
